<svg width="16" height="16" viewBox="0 0 16 16" fill="none" xmlns="http://www.w3.org/2000/svg">
  <path d="M11.3333 2.00008C11.5083 1.82499 11.7162 1.68609 11.945 1.59133C12.1738 1.49657 12.419 1.4478 12.6666 1.4478C12.9142 1.4478 13.1594 1.49657 13.3882 1.59133C13.617 1.68609 13.8248 1.82499 13.9999 2.00008C14.175 2.17518 14.3139 2.38305 14.4087 2.61182C14.5034 2.8406 14.5522 3.08579 14.5522 3.33342C14.5522 3.58104 14.5034 3.82624 14.4087 4.05501C14.3139 4.28379 14.175 4.49166 13.9999 4.66675L4.99992 13.6668L1.33325 14.6668L2.33325 11.0001L11.3333 2.00008Z" stroke="#3071F2" stroke-linecap="round" stroke-linejoin="round"/>
  <line x1="9.68681" y1="2.97978" x2="13.0201" y2="6.31311" stroke="#3071F2"/>
  </svg>
  