<svg width="32" height="32" viewBox="0 0 32 32" fill="none" xmlns="http://www.w3.org/2000/svg">
<g clip-path="url(#clip0_1044_22209)">
<circle cx="16.0002" cy="16.0002" r="16.0002" fill="#D2D3D9"/>
<path d="M16.0003 8.78555C18.35 8.78555 18.6284 8.79453 19.5563 8.83687C20.4143 8.87599 20.8803 9.01935 21.1904 9.13987C21.6012 9.29951 21.8943 9.4902 22.2022 9.79813C22.5102 10.1061 22.7009 10.3992 22.8605 10.81C22.981 11.1201 23.1244 11.5861 23.1635 12.4441C23.2059 13.372 23.2148 13.6503 23.2148 16C23.2148 18.3498 23.2059 18.6281 23.1635 19.5561C23.1244 20.4141 22.981 20.88 22.8605 21.1901C22.7009 21.6009 22.5102 21.894 22.2023 22.2019C21.8943 22.5099 21.6012 22.7006 21.1904 22.8602C20.8803 22.9808 20.4143 23.1241 19.5563 23.1632C18.6285 23.2056 18.3502 23.2146 16.0003 23.2146C13.6504 23.2146 13.3721 23.2056 12.4443 23.1632C11.5863 23.1241 11.1204 22.9808 10.8103 22.8602C10.3995 22.7006 10.1063 22.5099 9.79841 22.2019C9.49049 21.894 9.29976 21.6009 9.14012 21.1901C9.0196 20.88 8.87624 20.4141 8.83712 19.5561C8.79478 18.6281 8.7858 18.3498 8.7858 16C8.7858 13.6503 8.79478 13.372 8.83712 12.4441C8.87624 11.5861 9.0196 11.1201 9.14012 10.81C9.29976 10.3992 9.49045 10.1061 9.79841 9.79816C10.1063 9.4902 10.3995 9.29951 10.8103 9.13987C11.1204 9.01935 11.5863 8.87599 12.4443 8.83687C13.3723 8.79453 13.6506 8.78555 16.0003 8.78555ZM16.0003 7.19995C13.6104 7.19995 13.3107 7.21008 12.372 7.25291C11.4354 7.29563 10.7957 7.44441 10.2359 7.66193C9.65722 7.88682 9.16646 8.18773 8.6772 8.67695C8.18797 9.16621 7.88707 9.65697 7.66221 10.2357C7.44465 10.7954 7.29587 11.4351 7.25315 12.3718C7.21033 13.3104 7.2002 13.6101 7.2002 16C7.2002 18.39 7.21033 18.6897 7.25315 19.6283C7.29587 20.565 7.44465 21.2047 7.66221 21.7645C7.88707 22.3431 8.18797 22.8339 8.6772 23.3232C9.16646 23.8124 9.65722 24.1133 10.2359 24.3381C10.7957 24.5557 11.4354 24.7045 12.372 24.7472C13.3107 24.79 13.6104 24.8002 16.0003 24.8002C18.3903 24.8002 18.69 24.79 19.6286 24.7472C20.5653 24.7045 21.205 24.5557 21.7647 24.3381C22.3434 24.1133 22.8342 23.8124 23.3234 23.3232C23.8127 22.8339 24.1136 22.3431 24.3385 21.7645C24.556 21.2047 24.7048 20.565 24.7475 19.6283C24.7903 18.6897 24.8004 18.39 24.8004 16C24.8004 13.6101 24.7903 13.3104 24.7475 12.3718C24.7048 11.4351 24.556 10.7954 24.3385 10.2357C24.1136 9.65697 23.8127 9.16621 23.3234 8.67695C22.8342 8.18773 22.3434 7.88682 21.7647 7.66193C21.205 7.44441 20.5653 7.29563 19.6286 7.25291C18.69 7.21008 18.3903 7.19995 16.0003 7.19995Z" fill="white"/>
<path d="M16.0044 11.4851C13.5086 11.4851 11.4854 13.5083 11.4854 16.0041C11.4854 18.4998 13.5086 20.523 16.0044 20.523C18.5001 20.523 20.5233 18.4998 20.5233 16.0041C20.5233 13.5083 18.5001 11.4851 16.0044 11.4851ZM16.0044 18.9374C14.3843 18.9374 13.071 17.6241 13.071 16.0041C13.071 14.384 14.3843 13.0707 16.0044 13.0707C17.6244 13.0707 18.9377 14.384 18.9377 16.0041C18.9377 17.6241 17.6244 18.9374 16.0044 18.9374Z" fill="white"/>
<path d="M21.7575 11.3037C21.7575 11.8869 21.2847 12.3597 20.7015 12.3597C20.1183 12.3597 19.6455 11.8869 19.6455 11.3037C19.6455 10.7205 20.1183 10.2477 20.7015 10.2477C21.2847 10.2477 21.7575 10.7205 21.7575 11.3037Z" fill="white"/>
</g>
<defs>
<clipPath id="clip0_1044_22209">
<rect width="32" height="32" fill="white"/>
</clipPath>
</defs>
</svg>
