<svg width="132" height="118" viewBox="0 0 132 118" fill="none" xmlns="http://www.w3.org/2000/svg">
<g opacity="0.5">
<path d="M93.5 27.5C93.5 40.0125 76.7479 62.3104 69.3917 71.5C67.6271 73.7 64.35 73.7 62.6083 71.5C55.2521 62.3104 38.5 40.0125 38.5 27.5C38.5 12.3062 50.8063 0 66 0C81.1938 0 93.5 12.3062 93.5 27.5ZM95.3333 45.925C96.1354 44.3437 96.8688 42.7625 97.5333 41.2042C97.6479 40.9292 97.7625 40.6312 97.8771 40.3562L124.46 29.7229C128.081 28.2792 132 30.9375 132 34.8333V96.8917C132 99.1375 130.625 101.154 128.54 102.002L95.3333 115.271V45.925ZM31.5333 31.6937C32.0833 34.925 33.1833 38.1792 34.4667 41.2042C35.1312 42.7625 35.8646 44.3437 36.6667 45.925V103.537L7.53958 115.202C3.91875 116.646 0 113.987 0 110.092V48.0333C0 45.7875 1.375 43.7708 3.46042 42.9229L31.5562 31.6937H31.5333ZM75.1208 76.0833C78.3063 72.0958 83.3021 65.6104 88 58.4375V115.569L44 102.987V58.4375C48.6979 65.6104 53.6938 72.0958 56.8792 76.0833C61.5771 81.95 70.4229 81.95 75.1208 76.0833ZM66 34.8333C71.0646 34.8333 75.1667 30.7312 75.1667 25.6667C75.1667 20.6021 71.0646 16.5 66 16.5C60.9354 16.5 56.8333 20.6021 56.8333 25.6667C56.8333 30.7312 60.9354 34.8333 66 34.8333Z" fill="#3071F2"/>
</g>
<path d="M93.72 27.5C93.72 40.0125 76.9679 62.3104 69.6116 71.5C67.8471 73.7 64.57 73.7 62.8283 71.5C55.4721 62.3104 38.72 40.0125 38.72 27.5C38.72 12.3062 51.0262 0 66.22 0C81.4137 0 93.72 12.3062 93.72 27.5ZM66.22 34.8333C71.2846 34.8333 75.3866 30.7312 75.3866 25.6667C75.3866 20.6021 71.2846 16.5 66.22 16.5C61.1554 16.5 57.0533 20.6021 57.0533 25.6667C57.0533 30.7312 61.1554 34.8333 66.22 34.8333Z" fill="#3071F2"/>
</svg>
