<svg width="16" height="16" viewBox="0 0 16 16" fill="none" xmlns="http://www.w3.org/2000/svg">
<path d="M8 12V15" stroke="#A6A8B3" stroke-linecap="round" stroke-linejoin="round"/>
<path d="M13.4384 11.394C13.2799 10.6266 12.8276 9.95158 12.1781 9.51311C12.1179 9.47153 12.0676 9.41724 12.0307 9.35408C11.9938 9.29092 11.9712 9.22043 11.9646 9.14759L11.2947 2.45024C11.2823 2.32686 11.2246 2.21247 11.1327 2.12927C11.0407 2.04607 10.9212 2 10.7972 2H5.20213C5.07813 2 4.95856 2.04607 4.86663 2.12927C4.77469 2.21247 4.71695 2.32686 4.70461 2.45024L4.03472 9.14759C4.02805 9.22043 4.00547 9.29092 3.96857 9.35408C3.93168 9.41724 3.88137 9.47153 3.82119 9.51311C3.17171 9.95158 2.7194 10.6266 2.56087 11.394C2.54538 11.467 2.54635 11.5425 2.5637 11.615C2.58106 11.6876 2.61437 11.7553 2.66121 11.8134C2.70806 11.8714 2.76725 11.9183 2.83448 11.9506C2.90172 11.9828 2.97531 11.9997 3.04989 12H12.9494C13.024 11.9997 13.0976 11.9828 13.1648 11.9506C13.232 11.9183 13.2912 11.8714 13.3381 11.8134C13.3849 11.7553 13.4182 11.6876 13.4356 11.615C13.4529 11.5425 13.4539 11.467 13.4384 11.394Z" stroke="#A6A8B3" stroke-linecap="round" stroke-linejoin="round"/>
</svg>
