<svg width="24" height="24" viewBox="0 0 24 24" fill="none" xmlns="http://www.w3.org/2000/svg">
<path d="M18 8C18 6.4087 17.3679 4.88258 16.2426 3.75736C15.1174 2.63214 13.5913 2 12 2C10.4087 2 8.88258 2.63214 7.75736 3.75736C6.63214 4.88258 6 6.4087 6 8C6 15 3 17 3 17H21C21 17 18 15 18 8Z" stroke="#888A95" stroke-width="1.5" stroke-linecap="round" stroke-linejoin="round"/>
<path d="M14.2934 19.7529C14.0602 20.1548 13.7256 20.4885 13.323 20.7204C12.9204 20.9523 12.4639 21.0743 11.9992 21.0743C11.5346 21.0743 11.0781 20.9523 10.6755 20.7204C10.2729 20.4885 9.93822 20.1548 9.70508 19.7529" stroke="#888A95" stroke-width="1.5" stroke-linecap="round" stroke-linejoin="round"/>
</svg>
