<svg width="20" height="20" viewBox="0 0 20 20" fill="none" xmlns="http://www.w3.org/2000/svg">
<path d="M8.10717 13.6123L14.2944 7.42511C14.5288 7.1907 14.6605 6.87276 14.6605 6.54124C14.6605 6.20972 14.5288 5.89178 14.2944 5.65737C14.0599 5.42295 13.742 5.29125 13.4105 5.29125C13.079 5.29125 12.761 5.42295 12.5266 5.65737L4.57165 13.6123C3.61935 14.5646 3.63881 16.1281 4.61512 17.1044C5.59143 18.0807 7.15488 18.1002 8.10719 17.1479L16.1723 9.08274C16.8756 8.37948 17.2706 7.42565 17.2706 6.43109C17.2706 5.43653 16.8756 4.4827 16.1723 3.77944C15.469 3.07617 14.5152 2.68109 13.5206 2.68109C12.5261 2.68109 11.5723 3.07617 10.869 3.77944L4.68181 9.96662" stroke="#D2D3D9" stroke-width="1.5" stroke-linecap="round" stroke-linejoin="round"/>
</svg>
