<svg width="24" height="24" viewBox="0 0 24 24" fill="none" xmlns="http://www.w3.org/2000/svg">
<path d="M19.0843 21.1672C20.6953 21.1672 22.0012 19.8613 22.0012 18.2504C22.0012 16.6394 20.6953 15.3335 19.0843 15.3335C17.4734 15.3335 16.1675 16.6394 16.1675 18.2504C16.1675 19.8613 17.4734 21.1672 19.0843 21.1672Z" stroke="#888A95" stroke-width="1.5" stroke-linecap="round" stroke-linejoin="round"/>
<path d="M19.0848 15.3335L19.0846 11.1542C19.0846 9.82805 18.5577 8.55627 17.62 7.61857L13.6675 3.66602" stroke="#888A95" stroke-width="1.5" stroke-linecap="round" stroke-linejoin="round"/>
<path d="M13.6675 7.83297V3.66602H17.8344" stroke="#888A95" stroke-width="1.5" stroke-linecap="round" stroke-linejoin="round"/>
<path d="M4.91687 8.66626C6.52781 8.66626 7.83374 7.36033 7.83374 5.74939C7.83374 4.13845 6.52781 2.83252 4.91687 2.83252C3.30593 2.83252 2 4.13845 2 5.74939C2 7.36033 3.30593 8.66626 4.91687 8.66626Z" stroke="#888A95" stroke-width="1.5" stroke-linecap="round" stroke-linejoin="round"/>
<path d="M4.91406 8.66602L4.91423 12.8454C4.91429 14.1715 5.4411 15.4432 6.3788 16.3809L10.3314 20.3335" stroke="#888A95" stroke-width="1.5" stroke-linecap="round" stroke-linejoin="round"/>
<path d="M10.332 16.1675V20.3344H6.16504" stroke="#888A95" stroke-width="1.5" stroke-linecap="round" stroke-linejoin="round"/>
</svg>
