<svg width="24" height="24" viewBox="0 0 24 24" fill="none" xmlns="http://www.w3.org/2000/svg">
	<path d="M18.27 7.17969H2.75V17.1997C2.75 18.8497 4.09 20.1797 5.73 20.1797H18.26C19.91 20.1797 21.24 18.8397 21.24 17.1997V10.1697C21.25 8.51969 19.91 7.17969 18.27 7.17969Z" stroke="#888A95" stroke-width="1.5" stroke-linecap="round" stroke-linejoin="round" />
	<path d="M8.97998 3.82031H14.11C15.81 3.82031 17.19 5.33031 17.19 7.18031" stroke="#888A95" stroke-width="1.5" stroke-linecap="round" stroke-linejoin="round" />
	<path d="M2.75 10.8606V5.89062" stroke="#888A95" stroke-width="1.5" stroke-linecap="round" stroke-linejoin="round" />
	<path d="M11.48 7.18031H4.29C3.44 7.18031 2.75 6.43031 2.75 5.50031C2.75 4.57031 3.44 3.82031 4.29 3.82031H11.48" stroke="#888A95" stroke-width="1.5" stroke-linecap="round" stroke-linejoin="round" />
	<path d="M17.7099 14.1899C17.9916 14.1899 18.2199 13.9616 18.2199 13.6799C18.2199 13.3983 17.9916 13.1699 17.7099 13.1699C17.4283 13.1699 17.2 13.3983 17.2 13.6799C17.2 13.9616 17.4283 14.1899 17.7099 14.1899Z" fill="#888A95" stroke="#888A95" stroke-width="1.5" stroke-linecap="round" stroke-linejoin="round" />
</svg>
