<svg width="24" height="24" viewBox="0 0 24 24" fill="none" xmlns="http://www.w3.org/2000/svg">
<path d="M23.001 20.9999V18.9999C23.0003 18.1136 22.7053 17.2527 22.1623 16.5522C21.6194 15.8517 20.8591 15.3515 20.001 15.1299" stroke="#888A95" stroke-width="1.5" stroke-linecap="round" stroke-linejoin="round"/>
<path d="M17 21V19C17 17.9391 16.5786 16.9217 15.8284 16.1716C15.0783 15.4214 14.0609 15 13 15H5C3.93913 15 2.92172 15.4214 2.17157 16.1716C1.42143 16.9217 1 17.9391 1 19V21" stroke="#888A95" stroke-width="1.5" stroke-linecap="round" stroke-linejoin="round"/>
<path d="M16.0005 3.12988C16.8609 3.35018 17.6235 3.85058 18.1681 4.55219C18.7127 5.2538 19.0083 6.11671 19.0083 7.00488C19.0083 7.89305 18.7127 8.75596 18.1681 9.45757C17.6235 10.1592 16.8609 10.6596 16.0005 10.8799" stroke="#888A95" stroke-width="1.5" stroke-linecap="round" stroke-linejoin="round"/>
<path d="M9.00049 11C11.2096 11 13.0005 9.20914 13.0005 7C13.0005 4.79086 11.2096 3 9.00049 3C6.79135 3 5.00049 4.79086 5.00049 7C5.00049 9.20914 6.79135 11 9.00049 11Z" stroke="#888A95" stroke-width="1.5" stroke-linecap="round" stroke-linejoin="round"/>
</svg>
