<svg width="140" height="140" viewBox="0 0 140 140" fill="none" xmlns="http://www.w3.org/2000/svg">
<path d="M9.80029 50.2062L64.2906 14.8995C67.7643 12.6487 72.2362 12.6487 75.7099 14.8995L130.2 50.2062V117.087C130.2 122.886 125.499 127.587 119.7 127.587H20.3003C14.5013 127.587 9.80029 122.886 9.80029 117.087V50.2062Z" fill="#829FD9"/>
<path d="M26.8574 37.3998C26.8574 34.017 29.5997 31.2748 32.9824 31.2748H107.019C110.402 31.2748 113.144 34.017 113.144 37.3998V97.3897C113.144 100.772 110.402 103.515 107.019 103.515H32.9824C29.5997 103.515 26.8574 100.772 26.8574 97.3897V37.3998Z" fill="white"/>
<path fill-rule="evenodd" clip-rule="evenodd" d="M40.251 47.064C40.251 45.8138 41.2645 44.8003 42.5147 44.8003H96.8639C98.1141 44.8003 99.1276 45.8138 99.1276 47.064C99.1276 48.3142 98.1141 49.3277 96.8639 49.3277H42.5147C41.2645 49.3277 40.251 48.3142 40.251 47.064Z" fill="#E6E6ED"/>
<path fill-rule="evenodd" clip-rule="evenodd" d="M40.251 61.3904C40.251 60.1402 41.2645 59.1267 42.5147 59.1267H87.8827C89.133 59.1267 90.1465 60.1402 90.1465 61.3904C90.1465 62.6406 89.133 63.6541 87.8827 63.6541H42.5147C41.2645 63.6541 40.251 62.6406 40.251 61.3904Z" fill="#E6E6ED"/>
<path fill-rule="evenodd" clip-rule="evenodd" d="M40.251 75.6876C40.251 74.4795 41.1531 73.5001 42.2659 73.5001H96.861C97.9738 73.5001 98.876 74.4795 98.876 75.6876C98.876 76.8957 97.9738 77.8751 96.861 77.8751H42.2659C41.1531 77.8751 40.251 76.8957 40.251 75.6876Z" fill="#E6E6ED"/>
<path d="M9.80029 50.2062L66.6244 86.7851C68.6804 88.1086 71.3201 88.1086 73.3761 86.7851L130.2 50.2062V117.087C130.2 122.886 125.499 127.587 119.7 127.587L20.3003 127.587C14.5013 127.587 9.80029 122.886 9.80029 117.087L9.80029 50.2062Z" fill="#AAC2F2"/>
<path d="M9.80029 116.907L65.137 87.9882C68.1837 86.396 71.8168 86.396 74.8635 87.9882L130.2 116.907C130.2 122.704 125.501 127.403 119.704 127.403H20.2964C14.4995 127.403 9.80029 122.704 9.80029 116.907Z" fill="#CCDDFF"/>
</svg>
