<svg width="156" height="141" viewBox="0 0 156 141" fill="none" xmlns="http://www.w3.org/2000/svg">
<path d="M26.4007 29.9822C25.8531 26.8765 27.9271 23.9145 31.0329 23.3668C34.1386 22.8192 37.1006 24.8933 37.6482 27.999L38.6399 33.6227C38.0922 30.517 40.1663 27.555 43.272 27.0074C46.3777 26.4597 49.3398 28.5338 49.8874 31.6395L56.3329 68.1939C57.9298 75.8855 60.4563 92.4009 57.7762 96.9325C55.0961 101.464 53.5804 101.821 52.1932 102.266L53.4327 109.296L27.4228 113.882L26.1833 106.852L25.9352 106.678C24.4014 105.609 20.9802 103.225 18.4931 100.235C14.8135 95.8101 13.8633 90.4211 13.3261 87.3744L6.88055 50.82C6.33292 47.7143 8.40696 44.7522 11.5127 44.2046C14.6184 43.657 17.5804 45.731 18.1281 48.8368L16.1448 37.5892C15.5972 34.4835 17.6712 31.5215 20.777 30.9738C23.8827 30.4262 26.8447 32.5003 27.3923 35.606L26.4007 29.9822Z" fill="#F2E6DA"/>
<path d="M11.5121 44.2052C10.4871 44.386 9.57523 44.8294 8.83282 45.4532C10.8398 45.0704 11.7493 46.5539 12.1628 47.8958L17.4618 77.9478C20.5675 77.4002 22.6416 74.4381 22.0939 71.3324L18.1275 48.8374C17.5798 45.7317 14.6178 43.6576 11.5121 44.2052Z" fill="#E6D4C3" fill-opacity="0.9"/>
<path d="M20.8021 30.9698C20.7965 30.9708 20.7911 30.9732 20.7855 30.9741C20.7813 30.9749 20.7782 30.974 20.774 30.9747L20.7742 30.9761C19.7616 31.1605 18.859 31.5994 18.1229 32.2178C20.0387 31.8524 20.9527 33.1887 21.3918 34.4783L26.7237 64.7173C29.8294 64.1697 31.9035 61.2076 31.3559 58.1019L27.433 35.8543C27.4268 35.7699 27.4326 35.6877 27.4175 35.6019C26.8699 32.4962 23.9078 30.4221 20.8021 30.9698Z" fill="#E6D4C3" fill-opacity="0.9"/>
<path d="M31.0321 23.3672C30.0072 23.5479 29.0952 23.9914 28.3528 24.6152C30.3598 24.2323 31.2694 25.7159 31.6828 27.0578L37.9734 62.7336C41.0792 62.1859 43.1532 59.2239 42.6056 56.1182L37.6475 27.9994C37.0999 24.8936 34.1378 22.8196 31.0321 23.3672Z" fill="#E6D4C3" fill-opacity="0.9"/>
<path d="M43.2689 27.0088C42.244 27.1896 41.3321 27.633 40.5897 28.2568C42.5966 27.8739 43.5062 29.3575 43.9197 30.6994L52.1935 77.6227C55.2992 77.075 57.3733 74.113 56.8256 71.0073L49.8843 31.641C49.3367 28.5352 46.3746 26.4612 43.2689 27.0088Z" fill="#E6D4C3" fill-opacity="0.9"/>
<path d="M45.9075 74.8448C41.9024 77.469 38.8353 84.065 39.5791 88.2828L43.5902 111.031L53.4318 109.296L52.1922 102.266C54.3374 101.68 57.5941 100.016 59.8395 96.3075C63.0175 91.0561 63.9103 82.3979 65.1764 77.2458C67.2863 68.6586 70.8443 55.9513 71.051 53.0127C71.2318 50.4453 64.7672 46.1505 57.9424 56.7737C56.5514 58.9398 55.7918 65.1303 54.0545 67.6097C52.3175 70.0905 50.4557 71.8641 45.9075 74.8448Z" fill="#F2E6DA"/>
<path d="M65.1766 77.2442C67.2866 68.657 70.8446 55.9496 71.0512 53.011C71.1437 51.6857 69.7404 48.1423 64.5099 50.4678C69.7217 53.3962 62.2595 67.6559 56.0762 87.4496C52.9583 97.4323 43.7371 95.4182 45.0785 103.026C45.6296 106.151 45.9985 108.243 46.4028 110.536C49.7068 109.954 51.1479 109.7 53.4325 109.297C52.8871 106.204 52.4972 104.001 52.1916 102.267C54.56 101.813 57.5946 100.016 59.8398 96.3059C63.0194 91.0556 63.9106 82.3963 65.1766 77.2442Z" fill="#E6D4C3" fill-opacity="0.9"/>
<path d="M56.8368 115.259L26.0327 120.691L25.3152 116.622C25.0916 115.354 25.9393 114.143 27.2075 113.92L53.4156 109.299C54.6852 109.075 55.8958 109.922 56.1196 111.192L56.8368 115.259Z" fill="white"/>
<path d="M61.1468 133.329L28.1635 139.145C26.6226 139.416 25.154 138.388 24.8823 136.847L22.6457 124.163C22.3739 122.622 23.4023 121.153 24.9432 120.881L57.9266 115.066C59.4675 114.794 60.9361 115.822 61.2078 117.363L63.4444 130.048C63.7161 131.588 62.6878 133.057 61.1468 133.329Z" fill="#A9C2F2"/>
<path d="M57.9299 115.068L51.793 116.15C53.3339 115.878 54.8025 116.907 55.0742 118.447L57.3108 131.132C57.5825 132.673 56.5542 134.141 55.0133 134.413L61.1502 133.331C62.6911 133.059 63.7194 131.591 63.4477 130.05L61.2111 117.365C60.9394 115.824 59.4708 114.796 57.9299 115.068Z" fill="#829FD9"/>
<path d="M53.4161 109.299L48.3716 110.188C49.6411 109.964 50.8518 110.812 51.0756 112.081L51.7931 116.15L56.8376 115.261L56.1201 111.192C55.8963 109.922 54.6857 109.075 53.4161 109.299Z" fill="#E6E6ED"/>
<path d="M129.064 35.6079C129.611 32.5022 132.574 30.4281 135.679 30.9758C138.785 31.5234 140.859 34.4854 140.311 37.5911L138.328 48.8387C138.876 45.7329 141.838 43.6589 144.944 44.2065C148.049 44.7541 150.123 47.7162 149.576 50.8219L143.13 87.3764C142.593 90.423 141.643 95.812 137.963 100.237C135.476 103.227 132.055 105.611 130.521 106.68L130.273 106.854L129.033 113.884L103.024 109.298L104.263 102.268C102.876 101.823 101.36 101.466 98.68 96.9344C95.9999 92.4028 98.5264 75.8874 100.123 68.1959L106.569 31.6414C107.116 28.5357 110.078 26.4617 113.184 27.0093C116.29 27.5569 118.364 30.5189 117.816 33.6247L118.808 28.0009C119.356 24.8952 122.318 22.8211 125.423 23.3688C128.529 23.9164 130.603 26.8784 130.055 29.9841L129.064 35.6079Z" fill="#F2E6DA"/>
<path d="M135.663 30.9736C135.658 30.9726 135.652 30.973 135.646 30.972C135.642 30.9713 135.638 30.9691 135.635 30.9686L135.635 30.97C134.62 30.7969 133.622 30.9007 132.719 31.23C134.644 31.5419 135.046 33.1102 135.018 34.4722L128.25 72.853C131.356 73.4006 134.318 71.3266 134.865 68.2209L140.224 37.8315C140.247 37.75 140.28 37.6747 140.296 37.589C140.843 34.4833 138.769 31.5212 135.663 30.9736Z" fill="#E6D4C3" fill-opacity="0.9"/>
<path d="M125.395 23.3626C124.37 23.1819 123.362 23.2867 122.451 23.619C124.468 23.9456 124.815 25.6508 124.745 27.0532L118.454 62.729C121.56 63.2766 124.522 61.2025 125.069 58.0968L130.028 29.978C130.575 26.8723 128.501 23.9103 125.395 23.3626Z" fill="#E6D4C3" fill-opacity="0.9"/>
<path d="M113.163 27.0067C112.139 26.826 111.13 26.9308 110.219 27.263C112.236 27.5897 112.583 29.2948 112.513 30.6973L106.966 62.1552C110.072 62.7028 113.034 60.6288 113.581 57.523L117.796 33.6221C118.343 30.5163 116.269 27.5543 113.163 27.0067Z" fill="#E6D4C3" fill-opacity="0.9"/>
<path d="M102.4 67.6124C100.663 65.1316 99.9037 58.941 98.5125 56.7764C91.6877 46.1531 85.2231 50.448 85.4039 53.0153C85.6104 55.9554 89.1683 68.6627 91.2785 77.2485C92.5446 82.4006 93.4374 91.0588 96.6154 96.3102C98.8605 100.02 102.117 101.684 104.263 102.269L103.023 109.298L112.865 111.034L116.876 88.2854C117.62 84.0676 114.553 77.4716 110.547 74.8475C105.999 71.8667 104.137 70.0931 102.4 67.6124Z" fill="#F2E6DA"/>
<path d="M99.6145 115.261L130.419 120.692L131.136 116.624C131.36 115.354 130.512 114.143 129.243 113.92L103.035 109.298C101.765 109.075 100.554 109.922 100.331 111.192L99.6131 115.261L99.6145 115.261Z" fill="white"/>
<path d="M95.301 133.331L128.284 139.146C129.825 139.418 131.294 138.39 131.566 136.849L133.802 124.164C134.074 122.624 133.046 121.155 131.505 120.883L98.5213 115.067C96.9804 114.796 95.5118 115.824 95.2401 117.365L93.0035 130.049C92.7332 131.59 93.7615 133.059 95.301 133.331Z" fill="#A9C2F2"/>
<path d="M131.436 120.873L125.299 119.79C126.84 120.062 127.868 121.531 127.596 123.072L125.36 135.756C125.088 137.297 123.619 138.325 122.079 138.054L128.215 139.136C129.756 139.407 131.225 138.379 131.497 136.838L133.733 124.154C134.005 122.613 132.977 121.144 131.436 120.873Z" fill="#829FD9"/>
<path d="M129.168 113.907L124.123 113.018C125.393 113.242 126.24 114.452 126.016 115.722L125.299 119.791L130.344 120.68L131.061 116.611C131.283 115.342 130.436 114.131 129.168 113.907Z" fill="#E6E6ED"/>
<path d="M145.509 44.3346C144.292 43.9938 143.077 44.0681 141.997 44.4619C144.014 44.7885 144.361 46.4937 144.291 47.8961L137.598 85.8509C136.871 89.9787 134.334 95.0735 130.959 97.5589L129.399 98.7075C126.731 100.672 124.952 103.419 124.376 106.682L123.285 112.87L129.033 113.883L130.272 106.853L130.52 106.68C132.054 105.611 135.475 103.228 137.963 100.236C140.376 97.3335 141.606 94.0276 142.324 91.2274C142.469 90.8673 142.581 90.487 142.651 90.0891L149.534 51.0517C150.049 48.1257 148.37 45.1362 145.509 44.3346Z" fill="#E6D4C3" fill-opacity="0.9"/>
<path d="M110.543 74.8438C105.995 71.863 104.133 70.0894 102.396 67.6086C100.659 65.1279 99.8991 58.9373 98.5081 56.7712C96.2387 53.2398 94.0093 51.3565 92.052 50.5112C88.5201 48.9853 90.4843 54.765 93.3165 59.1741C94.7075 61.3401 95.4672 67.5307 97.2042 70.0115C98.9413 72.4923 100.803 74.2658 105.351 77.2466C108.337 79.204 110.802 83.3686 111.555 87.1094C111.897 88.8122 113.795 89.705 115.37 88.9753C116.409 88.4945 117.036 87.4221 116.959 86.2793C116.689 82.2045 113.957 77.0809 110.543 74.8438Z" fill="#E6D4C3" fill-opacity="0.9"/>
<path d="M0.991592 17.8249L4.34412 14.0533C4.784 13.5585 5.57468 13.62 5.93271 14.177L10.4631 21.2242C10.6539 21.5211 10.6742 21.8965 10.5163 22.2122L9.46883 24.3072C9.18572 24.8734 8.45436 25.0374 7.95658 24.6463L1.12118 19.2756C0.668157 18.9197 0.608831 18.2555 0.991592 17.8249Z" fill="#FADA9B"/>
<path d="M155.008 17.8249L151.656 14.0533C151.216 13.5585 150.425 13.62 150.067 14.177L145.537 21.2242C145.346 21.5211 145.326 21.8965 145.484 22.2122L146.531 24.3072C146.814 24.8734 147.546 25.0374 148.043 24.6463L154.879 19.2756C155.332 18.9197 155.391 18.2556 155.008 17.8249Z" fill="#FADA9B"/>
<path d="M23.6086 1.76256L28.1943 0.928791C28.7738 0.823426 29.3184 1.23924 29.3694 1.82603L30.4278 13.9973C30.473 14.5173 30.1108 14.9846 29.596 15.0704L27.6618 15.3927C27.1713 15.4745 26.6953 15.1834 26.5445 14.7095L22.8345 3.04963C22.6517 2.47498 23.0153 1.87043 23.6086 1.76256Z" fill="#FADA9B"/>
<path d="M132.391 1.76256L127.806 0.928791C127.226 0.823426 126.682 1.23924 126.631 1.82603L125.572 13.9973C125.527 14.5173 125.889 14.9846 126.404 15.0704L128.338 15.3927C128.829 15.4745 129.305 15.1834 129.456 14.7095L133.165 3.04963C133.348 2.47498 132.985 1.87043 132.391 1.76256Z" fill="#FADA9B"/>
<path d="M51.8172 8.76724L49.7679 17.9892C49.6827 18.3726 49.8298 18.7704 50.1441 19.0061L51.1129 19.7328C51.6198 20.1129 52.348 19.9319 52.6178 19.3586L56.6135 10.8676C56.8447 10.3763 56.6416 9.79024 56.1559 9.5474L53.2406 8.08975C52.6587 7.7988 51.9583 8.13217 51.8172 8.76724Z" fill="#FADA9B"/>
<path d="M104.183 8.76725L106.232 17.9892C106.317 18.3726 106.17 18.7704 105.856 19.0061L104.887 19.7328C104.38 20.1129 103.652 19.9319 103.382 19.3586L99.3865 10.8676C99.1553 10.3763 99.3584 9.79024 99.8441 9.5474L102.759 8.08975C103.341 7.7988 104.042 8.13217 104.183 8.76725Z" fill="#FADA9B"/>
</svg>
