<svg width="160" height="160" viewBox="0 0 160 160" fill="none" xmlns="http://www.w3.org/2000/svg">
<g id="Account created ill">
<g id="Group 1340">
<g id="Group 1337">
<path id="Vector" d="M28.4007 38.9822C27.8531 35.8765 29.9271 32.9145 33.0329 32.3668C36.1386 31.8192 39.1006 33.8933 39.6482 36.999L40.6399 42.6227C40.0922 39.517 42.1663 36.555 45.272 36.0074C48.3777 35.4597 51.3398 37.5338 51.8874 40.6395L58.3329 77.1939C59.9298 84.8855 62.4563 101.401 59.7762 105.933C57.0961 110.464 55.5804 110.821 54.1932 111.266L55.4327 118.296L29.4228 122.882L28.1833 115.852L27.9352 115.678C26.4014 114.609 22.9802 112.225 20.4931 109.235C16.8135 104.81 15.8633 99.4211 15.3261 96.3744L8.88055 59.82C8.33292 56.7143 10.407 53.7522 13.5127 53.2046C16.6184 52.657 19.5804 54.731 20.1281 57.8368L18.1448 46.5892C17.5972 43.4835 19.6712 40.5215 22.777 39.9738C25.8827 39.4262 28.8447 41.5003 29.3923 44.606L28.4007 38.9822Z" fill="#F2E6DA"/>
<path id="Vector_2" d="M13.5121 53.2052C12.4871 53.386 11.5752 53.8294 10.8328 54.4532C12.8398 54.0704 13.7493 55.5539 14.1628 56.8958L19.4618 86.9478C22.5675 86.4002 24.6416 83.4381 24.0939 80.3324L20.1275 57.8374C19.5798 54.7317 16.6178 52.6576 13.5121 53.2052Z" fill="#E6D4C3" fill-opacity="0.9"/>
<path id="Vector_3" d="M22.8021 39.9698C22.7965 39.9708 22.7911 39.9732 22.7855 39.9741C22.7813 39.9749 22.7782 39.974 22.774 39.9747L22.7742 39.9761C21.7616 40.1605 20.859 40.5994 20.1229 41.2178C22.0387 40.8524 22.9527 42.1887 23.3918 43.4783L28.7237 73.7173C31.8294 73.1697 33.9035 70.2076 33.3559 67.1019L29.433 44.8543C29.4268 44.7699 29.4326 44.6877 29.4175 44.6019C28.8699 41.4962 25.9078 39.4221 22.8021 39.9698Z" fill="#E6D4C3" fill-opacity="0.9"/>
<path id="Vector_4" d="M33.0321 32.3672C32.0072 32.5479 31.0952 32.9914 30.3528 33.6152C32.3598 33.2323 33.2694 34.7159 33.6828 36.0578L39.9734 71.7336C43.0792 71.1859 45.1532 68.2239 44.6056 65.1182L39.6475 36.9994C39.0999 33.8936 36.1378 31.8196 33.0321 32.3672Z" fill="#E6D4C3" fill-opacity="0.9"/>
<path id="Vector_5" d="M45.2689 36.0088C44.244 36.1896 43.3321 36.633 42.5897 37.2568C44.5966 36.8739 45.5062 38.3575 45.9197 39.6994L54.1935 86.6227C57.2992 86.075 59.3733 83.113 58.8256 80.0073L51.8843 40.641C51.3367 37.5352 48.3746 35.4612 45.2689 36.0088Z" fill="#E6D4C3" fill-opacity="0.9"/>
<path id="Vector_6" d="M47.9075 83.8448C43.9024 86.469 40.8353 93.065 41.5791 97.2828L45.5902 120.031L55.4318 118.296L54.1922 111.266C56.3374 110.68 59.5941 109.016 61.8395 105.308C65.0175 100.056 65.9103 91.3979 67.1764 86.2458C69.2863 77.6586 72.8443 64.9513 73.051 62.0127C73.2318 59.4453 66.7672 55.1505 59.9424 65.7737C58.5514 67.9398 57.7918 74.1303 56.0545 76.6097C54.3175 79.0905 52.4557 80.8641 47.9075 83.8448Z" fill="#F2E6DA"/>
<path id="Vector_7" d="M67.1766 86.2442C69.2866 77.657 72.8446 64.9496 73.0512 62.011C73.1437 60.6857 71.7404 57.1423 66.5099 59.4678C71.7217 62.3962 64.2595 76.6559 58.0762 96.4496C54.9583 106.432 45.7371 104.418 47.0785 112.026C47.6296 115.151 47.9985 117.243 48.4028 119.536C51.7068 118.954 53.1479 118.7 55.4325 118.297C54.8871 115.204 54.4972 113.001 54.1916 111.267C56.56 110.813 59.5946 109.016 61.8398 105.306C65.0194 100.056 65.9106 91.3963 67.1766 86.2442Z" fill="#E6D4C3" fill-opacity="0.9"/>
<path id="Vector_8" d="M58.8368 124.259L28.0327 129.691L27.3152 125.622C27.0916 124.354 27.9393 123.143 29.2075 122.92L55.4156 118.299C56.6852 118.075 57.8958 118.922 58.1196 120.192L58.8368 124.259Z" fill="white"/>
<path id="Vector_9" d="M63.1468 142.329L30.1635 148.145C28.6226 148.416 27.154 147.388 26.8823 145.847L24.6457 133.163C24.3739 131.622 25.4023 130.153 26.9432 129.881L59.9266 124.066C61.4675 123.794 62.9361 124.822 63.2078 126.363L65.4444 139.048C65.7161 140.588 64.6878 142.057 63.1468 142.329Z" fill="#A9C2F2"/>
<path id="Vector_10" d="M59.9299 124.068L53.793 125.15C55.3339 124.878 56.8025 125.907 57.0742 127.447L59.3108 140.132C59.5825 141.673 58.5542 143.141 57.0133 143.413L63.1502 142.331C64.6911 142.059 65.7194 140.591 65.4477 139.05L63.2111 126.365C62.9394 124.824 61.4708 123.796 59.9299 124.068Z" fill="#829FD9"/>
<path id="Vector_11" d="M55.4161 118.299L50.3716 119.188C51.6411 118.964 52.8518 119.812 53.0756 121.081L53.7931 125.15L58.8376 124.261L58.1201 120.192C57.8963 118.922 56.6857 118.075 55.4161 118.299Z" fill="#E6E6ED"/>
</g>
<g id="Group 1338">
<path id="Vector_12" d="M131.064 44.6079C131.611 41.5022 134.574 39.4281 137.679 39.9758C140.785 40.5234 142.859 43.4854 142.311 46.5911L140.328 57.8387C140.876 54.7329 143.838 52.6589 146.944 53.2065C150.049 53.7541 152.123 56.7162 151.576 59.8219L145.13 96.3764C144.593 99.423 143.643 104.812 139.963 109.237C137.476 112.227 134.055 114.611 132.521 115.68L132.273 115.854L131.033 122.884L105.024 118.298L106.263 111.268C104.876 110.823 103.36 110.466 100.68 105.934C97.9999 101.403 100.526 84.8874 102.123 77.1959L108.569 40.6414C109.116 37.5357 112.078 35.4617 115.184 36.0093C118.29 36.5569 120.364 39.5189 119.816 42.6247L120.808 37.0009C121.356 33.8952 124.318 31.8211 127.423 32.3688C130.529 32.9164 132.603 35.8784 132.055 38.9841L131.064 44.6079Z" fill="#F2E6DA"/>
<path id="Vector_13" d="M137.663 39.9736C137.658 39.9726 137.652 39.973 137.646 39.972C137.642 39.9713 137.638 39.9691 137.635 39.9686L137.635 39.97C136.62 39.7969 135.622 39.9007 134.719 40.23C136.644 40.5419 137.046 42.1102 137.018 43.4722L130.25 81.853C133.356 82.4006 136.318 80.3266 136.865 77.2209L142.224 46.8315C142.247 46.75 142.28 46.6747 142.296 46.589C142.843 43.4833 140.769 40.5212 137.663 39.9736Z" fill="#E6D4C3" fill-opacity="0.9"/>
<path id="Vector_14" d="M127.395 32.3626C126.37 32.1819 125.362 32.2867 124.451 32.619C126.468 32.9456 126.815 34.6508 126.745 36.0532L120.454 71.729C123.56 72.2766 126.522 70.2025 127.069 67.0968L132.028 38.978C132.575 35.8723 130.501 32.9103 127.395 32.3626Z" fill="#E6D4C3" fill-opacity="0.9"/>
<path id="Vector_15" d="M115.163 36.0067C114.139 35.826 113.13 35.9308 112.219 36.263C114.236 36.5897 114.583 38.2948 114.513 39.6973L108.966 71.1552C112.072 71.7028 115.034 69.6288 115.581 66.523L119.796 42.6221C120.343 39.5163 118.269 36.5543 115.163 36.0067Z" fill="#E6D4C3" fill-opacity="0.9"/>
<path id="Vector_16" d="M104.4 76.6124C102.663 74.1316 101.904 67.941 100.512 65.7764C93.6877 55.1531 87.2231 59.448 87.4039 62.0153C87.6104 64.9554 91.1683 77.6627 93.2785 86.2485C94.5446 91.4006 95.4374 100.059 98.6154 105.31C100.861 109.02 104.117 110.684 106.263 111.269L105.023 118.298L114.865 120.034L118.876 97.2854C119.62 93.0676 116.553 86.4716 112.547 83.8475C107.999 80.8667 106.137 79.0931 104.4 76.6124Z" fill="#F2E6DA"/>
<path id="Vector_17" d="M101.614 124.261L132.419 129.692L133.136 125.624C133.36 124.354 132.512 123.143 131.243 122.92L105.035 118.298C103.765 118.075 102.554 118.922 102.331 120.192L101.613 124.261L101.614 124.261Z" fill="white"/>
<path id="Vector_18" d="M97.301 142.331L130.284 148.146C131.825 148.418 133.294 147.39 133.566 145.849L135.802 133.164C136.074 131.624 135.046 130.155 133.505 129.883L100.521 124.067C98.9804 123.796 97.5118 124.824 97.2401 126.365L95.0035 139.049C94.7332 140.59 95.7615 142.059 97.301 142.331Z" fill="#A9C2F2"/>
<path id="Vector_19" d="M133.436 129.873L127.299 128.79C128.84 129.062 129.868 130.531 129.596 132.072L127.36 144.756C127.088 146.297 125.619 147.325 124.079 147.054L130.215 148.136C131.756 148.407 133.225 147.379 133.497 145.838L135.733 133.154C136.005 131.613 134.977 130.144 133.436 129.873Z" fill="#829FD9"/>
<path id="Vector_20" d="M131.168 122.907L126.123 122.018C127.393 122.242 128.24 123.452 128.016 124.722L127.299 128.791L132.344 129.68L133.061 125.611C133.283 124.342 132.436 123.131 131.168 122.907Z" fill="#E6E6ED"/>
<path id="Vector_21" d="M147.509 53.3346C146.292 52.9938 145.077 53.0681 143.997 53.4619C146.014 53.7885 146.361 55.4937 146.291 56.8961L139.598 94.8509C138.871 98.9787 136.334 104.074 132.959 106.559L131.399 107.707C128.731 109.672 126.952 112.419 126.376 115.682L125.285 121.87L131.033 122.883L132.272 115.853L132.52 115.68C134.054 114.611 137.475 112.228 139.963 109.236C142.376 106.333 143.606 103.028 144.324 100.227C144.469 99.8673 144.581 99.487 144.651 99.0891L151.534 60.0517C152.049 57.1257 150.37 54.1362 147.509 53.3346Z" fill="#E6D4C3" fill-opacity="0.9"/>
<path id="Vector_22" d="M112.543 83.8438C107.995 80.863 106.133 79.0894 104.396 76.6086C102.659 74.1279 101.899 67.9373 100.508 65.7712C98.2387 62.2398 96.0093 60.3565 94.052 59.5112C90.5201 57.9853 92.4843 63.765 95.3165 68.1741C96.7075 70.3401 97.4672 76.5307 99.2042 79.0115C100.941 81.4923 102.803 83.2658 107.351 86.2466C110.337 88.204 112.802 92.3686 113.555 96.1094C113.897 97.8122 115.795 98.705 117.37 97.9753C118.409 97.4945 119.036 96.4221 118.959 95.2793C118.689 91.2045 115.957 86.0809 112.543 83.8438Z" fill="#E6D4C3" fill-opacity="0.9"/>
</g>
<g id="Group 1339">
<path id="Vector 375" d="M2.99159 26.8249L6.34412 23.0533C6.784 22.5585 7.57468 22.62 7.93271 23.177L12.4631 30.2242C12.6539 30.5211 12.6742 30.8965 12.5163 31.2122L11.4688 33.3072C11.1857 33.8734 10.4544 34.0374 9.95658 33.6463L3.12118 28.2756C2.66816 27.9197 2.60883 27.2555 2.99159 26.8249Z" fill="#FADA9B"/>
<path id="Vector 378" d="M157.008 26.8249L153.656 23.0533C153.216 22.5585 152.425 22.62 152.067 23.177L147.537 30.2242C147.346 30.5211 147.326 30.8965 147.484 31.2122L148.531 33.3072C148.814 33.8734 149.546 34.0374 150.043 33.6463L156.879 28.2756C157.332 27.9197 157.391 27.2556 157.008 26.8249Z" fill="#FADA9B"/>
<path id="Vector 376" d="M25.6086 10.7626L30.1943 9.92879C30.7738 9.82343 31.3184 10.2392 31.3694 10.826L32.4278 22.9973C32.473 23.5173 32.1108 23.9846 31.596 24.0704L29.6618 24.3927C29.1713 24.4745 28.6953 24.1834 28.5445 23.7095L24.8345 12.0496C24.6517 11.475 25.0153 10.8704 25.6086 10.7626Z" fill="#FADA9B"/>
<path id="Vector 379" d="M134.391 10.7626L129.806 9.92879C129.226 9.82343 128.682 10.2392 128.631 10.826L127.572 22.9973C127.527 23.5173 127.889 23.9846 128.404 24.0704L130.338 24.3927C130.829 24.4745 131.305 24.1834 131.456 23.7095L135.165 12.0496C135.348 11.475 134.985 10.8704 134.391 10.7626Z" fill="#FADA9B"/>
<path id="Vector 377" d="M53.8172 17.7672L51.7679 26.9892C51.6827 27.3726 51.8298 27.7704 52.1441 28.0061L53.1129 28.7328C53.6198 29.1129 54.348 28.9319 54.6178 28.3586L58.6135 19.8676C58.8447 19.3763 58.6416 18.7902 58.1559 18.5474L55.2406 17.0897C54.6587 16.7988 53.9583 17.1322 53.8172 17.7672Z" fill="#FADA9B"/>
<path id="Vector 380" d="M106.183 17.7672L108.232 26.9892C108.317 27.3726 108.17 27.7704 107.856 28.0061L106.887 28.7328C106.38 29.1129 105.652 28.9319 105.382 28.3586L101.386 19.8676C101.155 19.3763 101.358 18.7902 101.844 18.5474L104.759 17.0897C105.341 16.7988 106.042 17.1322 106.183 17.7672Z" fill="#FADA9B"/>
</g>
</g>
</g>
</svg>
