<svg width="32" height="32" viewBox="0 0 32 32" fill="none" xmlns="http://www.w3.org/2000/svg">
<path fill-rule="evenodd" clip-rule="evenodd" d="M16 28C22.6274 28 28 22.6274 28 16C28 9.37258 22.6274 4 16 4C9.37258 4 4 9.37258 4 16C4 22.6274 9.37258 28 16 28ZM16 9C16.5523 9 17 9.44772 17 10V17C17 17.5523 16.5523 18 16 18C15.4477 18 15 17.5523 15 17V10C15 9.44772 15.4477 9 16 9ZM17.5 21.5C17.5 22.3284 16.8284 23 16 23C15.1716 23 14.5 22.3284 14.5 21.5C14.5 20.6716 15.1716 20 16 20C16.8284 20 17.5 20.6716 17.5 21.5Z" fill="#FAB11E"/>
</svg>
