<svg width="32" height="32" viewBox="0 0 32 32" fill="none" xmlns="http://www.w3.org/2000/svg">
<path fill-rule="evenodd" clip-rule="evenodd" d="M28 16C28 22.6274 22.6274 28 16 28C9.37258 28 4 22.6274 4 16C4 9.37258 9.37258 4 16 4C22.6274 4 28 9.37258 28 16ZM22.0179 13.5425C22.3175 13.2565 22.3285 12.7818 22.0425 12.4821C21.7565 12.1825 21.2818 12.1715 20.9821 12.4575L14.1666 18.9632L11.0179 15.9575C10.7182 15.6715 10.2435 15.6825 9.95749 15.9821C9.67148 16.2818 9.68252 16.7565 9.98214 17.0425L13.6488 20.5425C13.9386 20.8192 14.3947 20.8192 14.6845 20.5425L22.0179 13.5425Z" fill="#2DB560"/>
</svg>
